<svg width="111" height="111" viewBox="0 0 111 111" fill="none" xmlns="http://www.w3.org/2000/svg">
<rect x="0.5" y="0.690002" width="110" height="110" rx="25" fill="white"/>
<g clip-path="url(#clip0_1_62)">
<g clip-path="url(#clip1_1_62)">
<path d="M76.8281 23.9713H34.1719C27.8292 23.9713 22.6875 29.113 22.6875 35.4556V75.9244C22.6875 82.267 27.8292 87.4088 34.1719 87.4088H76.8281C83.1708 87.4088 88.3125 82.267 88.3125 75.9244V35.4556C88.3125 29.113 83.1708 23.9713 76.8281 23.9713Z" fill="#330000"/>
<path d="M55.716 63.3463H45.9297L43.4032 70.6416C43.374 70.8822 43.2218 71.0025 42.9465 71.0025H38.3528C38.0465 71.0025 37.9399 70.8521 38.0328 70.5513L46.8977 44.222C47.148 43.4204 47.2717 42.5845 47.2641 41.7447C47.2591 41.7076 47.2628 41.6699 47.2748 41.6345C47.2868 41.599 47.3068 41.5668 47.3332 41.5404C47.3597 41.5139 47.3919 41.4939 47.4273 41.482C47.4627 41.47 47.5005 41.4663 47.5375 41.4713H53.9688C54.1547 41.4713 54.2614 41.5478 54.2914 41.6955L64.2117 70.5978C64.3047 70.8713 64.2282 71.0025 63.9821 71.0025H58.8387C58.7436 71.0082 58.6489 70.9852 58.567 70.9364C58.4851 70.8877 58.4197 70.8154 58.3793 70.7291L55.716 63.3463ZM47.0235 58.4244H54.6469C54.4637 58.0224 51.0348 46.9592 50.7887 46.0267H50.745L47.0235 58.4244Z" fill="#FF9A00"/>
<path d="M69.6941 46.94C69.263 46.9584 68.8325 46.8903 68.4281 46.7395C68.0238 46.5887 67.6537 46.3585 67.3398 46.0623C67.0327 45.75 66.7939 45.3772 66.6385 44.9677C66.4832 44.5582 66.4147 44.1208 66.4375 43.6834C66.4172 43.2404 66.489 42.798 66.6486 42.3843C66.8082 41.9705 67.0519 41.5945 67.3645 41.2798C67.6809 40.9786 68.0544 40.7437 68.4629 40.5887C68.8714 40.4338 69.3067 40.362 69.7434 40.3775C70.1808 40.3547 70.6182 40.4232 71.0277 40.5785C71.4372 40.7339 71.81 40.9727 72.1223 41.2798C72.4212 41.6019 72.6528 41.9804 72.8035 42.3931C72.9543 42.8058 73.0211 43.2445 73 43.6834C73.0228 44.1208 72.9543 44.5582 72.799 44.9677C72.6436 45.3772 72.4048 45.75 72.0977 46.0623C71.7756 46.3612 71.3972 46.5928 70.9844 46.7435C70.5717 46.8943 70.133 46.9611 69.6941 46.94Z" fill="#FF9A00"/>
<path d="M66.9844 70.5923V49.4939C66.9771 49.4441 66.9815 49.3932 66.9973 49.3454C67.0131 49.2976 67.0398 49.2541 67.0755 49.2185C67.1111 49.1829 67.1545 49.1561 67.2023 49.1403C67.2502 49.1245 67.301 49.1201 67.3508 49.1275H72.0868C72.1365 49.1207 72.1871 49.1255 72.2346 49.1415C72.2822 49.1575 72.3254 49.1843 72.3609 49.2198C72.3963 49.2553 72.4231 49.2985 72.4391 49.346C72.4552 49.3936 72.46 49.4442 72.4532 49.4939V70.6361C72.4606 70.6859 72.4562 70.7368 72.4404 70.7846C72.4245 70.8324 72.3978 70.8759 72.3622 70.9115C72.3265 70.9471 72.2831 70.9739 72.2353 70.9897C72.1875 71.0055 72.1366 71.0099 72.0868 71.0025H67.3946C67.3389 71.0102 67.2822 71.0049 67.2289 70.987C67.1757 70.9692 67.1272 70.9392 67.0875 70.8994C67.0478 70.8597 67.0178 70.8113 66.9999 70.758C66.982 70.7047 66.9767 70.648 66.9844 70.5923Z" fill="#FF9A00"/>
</g>
</g>
<defs>
<clipPath id="clip0_1_62">
<rect width="70" height="70" fill="white" transform="translate(20.5 20.69)"/>
</clipPath>
<clipPath id="clip1_1_62">
<rect width="70" height="70" fill="white" transform="translate(20.5 20.69)"/>
</clipPath>
</defs>
</svg>
