<svg width="111" height="111" viewBox="0 0 111 111" fill="none" xmlns="http://www.w3.org/2000/svg">
<rect x="0.5" y="0.690002" width="110" height="110" rx="25" fill="white"/>
<g clip-path="url(#clip0_1_53)">
<g clip-path="url(#clip1_1_53)">
<g clip-path="url(#clip2_1_53)">
<path d="M32.8959 21.565H78.1043C84.9584 21.565 90.5 27.1066 90.5 33.9609V77.4193C90.5 84.2734 84.9584 89.8151 78.1041 89.8151H32.8959C26.0416 89.815 20.5 84.2734 20.5 77.4191V33.9609C20.5 27.1066 26.0416 21.565 32.8959 21.565Z" fill="#001834"/>
<path d="M36.25 69.4275V39.415C36.25 39.2109 36.3375 39.0941 36.5416 39.0941C37.0375 39.0941 37.5041 39.0941 38.175 39.065C38.875 39.0359 39.6041 39.0359 40.3916 39.0066C41.1791 38.9774 42.025 38.9775 42.9291 38.9483C43.8332 38.9191 44.7082 38.9191 45.5832 38.9191C47.9749 38.9191 49.9582 39.2108 51.5916 39.8233C53.05 40.3191 54.3916 41.1357 55.5 42.2149C56.4334 43.1483 57.1625 44.2858 57.6291 45.5399C58.0666 46.7649 58.3 48.019 58.3 49.3315C58.3 51.8399 57.7166 53.9106 56.55 55.544C55.3834 57.1774 53.75 58.4024 51.8541 59.1024C49.8707 59.8315 47.6832 60.094 45.2916 60.094C44.5916 60.094 44.125 60.094 43.8332 60.0649C43.5416 60.0357 43.1332 60.0358 42.5791 60.0358V69.3982C42.6082 69.6024 42.4625 69.7774 42.2582 69.8066C42.2291 69.8066 42.1999 69.8066 42.1416 69.8066H36.6C36.3666 69.8066 36.25 69.69 36.25 69.4275ZM42.6084 44.7234V54.5234C43.0168 54.5525 43.3959 54.5818 43.7459 54.5818H45.2918C47.3058 54.5818 49.6318 54.1084 51.0375 52.511C52.2473 51.1362 52.2507 48.4097 51.2709 46.911C50.1077 45.1319 47.7815 44.6165 45.7875 44.6651C45.0291 44.6651 44.3584 44.6651 43.8041 44.6943C43.2209 44.665 42.8125 44.6941 42.6084 44.7234Z" fill="#00A9FF"/>
<path d="M76.5 52.7441C75.625 52.2775 74.6916 51.9566 73.7 51.7525C72.6209 51.5191 71.5416 51.3734 70.4334 51.3734C69.85 51.3443 69.2375 51.4318 68.6834 51.5775C68.3043 51.665 67.9834 51.8691 67.7793 52.1609C67.6334 52.3943 67.5459 52.6859 67.5459 52.9484C67.5459 53.2109 67.6625 53.4734 67.8375 53.7068C68.1 54.0276 68.45 54.2901 68.8291 54.4943C69.5 54.8443 70.2 55.1651 70.9 55.4568C72.475 55.9818 73.9916 56.7109 75.3916 57.5859C76.3541 58.1984 77.1416 59.015 77.6957 60.0068C78.1624 60.9401 78.3957 61.9609 78.3666 63.0109C78.3957 64.3818 77.9875 65.7525 77.2291 66.89C76.4125 68.0566 75.275 68.9609 73.9625 69.4859C72.5334 70.0984 70.7834 70.4193 68.6834 70.4193C67.3418 70.4193 66.0293 70.3026 64.7168 70.0401C63.6959 69.8651 62.6751 69.5443 61.7418 69.1068C61.5376 68.9901 61.3918 68.7859 61.4209 68.5526V63.4776C61.4209 63.3901 61.45 63.2735 61.5375 63.2151C61.625 63.1568 61.7125 63.186 61.8 63.2443C62.9375 63.9151 64.1334 64.3818 65.4166 64.6734C66.525 64.965 67.6916 65.1109 68.8582 65.1109C69.9666 65.1109 70.7541 64.965 71.2791 64.7025C71.7457 64.4984 72.0666 64.0025 72.0666 63.4775C72.0666 63.0691 71.8332 62.69 71.3666 62.3109C70.9 61.9318 69.9375 61.4943 68.5082 60.94C67.0207 60.415 65.6499 59.715 64.3666 58.84C63.4625 58.1984 62.7041 57.3525 62.15 56.3609C61.6834 55.4275 61.45 54.4068 61.4791 53.3859C61.4791 52.1318 61.8291 50.9359 62.4707 49.8568C63.1999 48.6901 64.2791 47.7568 65.5332 47.1734C66.9041 46.4734 68.6249 46.1525 70.6957 46.1525C71.8916 46.1525 73.1166 46.24 74.3124 46.415C75.1874 46.5316 76.0332 46.765 76.8207 47.0859C76.9374 47.115 77.0541 47.2318 77.1124 47.3484C77.1415 47.465 77.1707 47.5818 77.1707 47.6984V52.4525C77.1707 52.5691 77.1124 52.6859 77.0249 52.7441C76.7625 52.8025 76.6166 52.8025 76.5 52.7441Z" fill="#00A9FF"/>
</g>
</g>
</g>
<defs>
<clipPath id="clip0_1_53">
<rect width="70" height="70" fill="white" transform="translate(20.5 20.69)"/>
</clipPath>
<clipPath id="clip1_1_53">
<rect width="70" height="70" fill="white" transform="translate(20.5 20.69)"/>
</clipPath>
<clipPath id="clip2_1_53">
<rect width="70" height="70" fill="white" transform="translate(20.5 20.69)"/>
</clipPath>
</defs>
</svg>
